inDegrees=yes
name=ik_S54_A04_T02
DataType=double
version=3
OpenSimVersion=4.3-2021-08-27-4bc7ad9
endheader
time	pelvis_tilt	pelvis_list	pelvis_rotation	pelvis_tx	pelvis_ty	pelvis_tz	hip_flexion_r	hip_adduction_r	hip_rotation_r	knee_angle_r	knee_angle_r_beta	ankle_angle_r	subtalar_angle_r	mtp_angle_r	hip_flexion_l	hip_adduction_l	hip_rotation_l	knee_angle_l	knee_angle_l_beta	ankle_angle_l	subtalar_angle_l	mtp_angle_l	lumbar_extension	lumbar_bending	lumbar_rotation	arm_flex_r	arm_add_r	arm_rot_r	elbow_flex_r	pro_sup_r	wrist_flex_r	wrist_dev_r	arm_flex_l	arm_add_l	arm_rot_l	elbow_flex_l	pro_sup_l	wrist_flex_l	wrist_dev_l
9.379999999999889	0.3749662907633004	-4.09845533479272	13.84168999770522	0	0.9399999999999999	0	19.58075225780908	0.9993820449082477	-14.14827883460536	29.9748816403214	0.5231603775192071	0	0	0	21.81150871609177	-11.04756692621724	-9.892986717139147	31.06695403441809	0.5422206364663313	0	0	0	0	0	0	27.40687255765793	-27.40687255765792	4.108670174335177	84.4124322539807	85.89133005868933	0	0	27.40687255765793	-27.40687255765792	4.108670174335177	84.4124322539807	85.89133005852382	0	0
9.399999999999888	0.5220073288409545	-4.091850166476779	13.84543368201392	0	0.9399999999999999	0	18.39533713224454	1.392560899371812	-13.67000966293088	28.78371841260459	0.5023706572668657	0	0	0	18.81112092821516	-10.49872130150404	-9.41698526507912	27.24013853676631	0.4754301061659626	0	0	0	0	0	0	27.33326710950112	-27.33326710950111	4.102475891051444	84.40834904355714	85.89752434166489	0	0	27.33326710950112	-27.33326710950111	4.102475891051444	84.40834904355714	85.89752434149827	0	0
9.419999999999888	0.6526175521172292	-4.081173698445718	13.85987916655558	0	0.9399999999999999	0	17.21978512073978	1.78438165168154	-13.21175315882468	26.71021898442477	0.4661812652069083	0	0	0	18.65877402352866	-10.55720829095463	-9.381978550498212	26.29962679404699	0.4590150796018406	0	0	0	0	0	0	27.33755396153191	-27.3375539615319	4.102905467535291	84.40863220803439	85.89709476520306	0	0	27.33755396153191	-27.3375539615319	4.102905467535291	84.40863220803439	85.89709476503648	0	0
9.439999999999888	0.9544020699675871	-4.040813956499709	13.93713163701403	0	0.9399999999999999	0	16.90053879552061	1.785163536168499	-13.29083659581289	25.69179426398443	0.4484064006515215	0	0	0	15.71452500127578	-9.758484571106591	-8.740319738355179	23.00324397956245	0.4014823460829279	0	0	0	0	0	0	27.3436011926593	-27.34360119265928	4.103512127119225	84.40903210056929	85.89648810565016	0	0	27.3436011926593	-27.34360119265928	4.103512127119225	84.40903210056929	85.89648810548375	0	0
9.459999999999887	1.095116721439207	-4.056747371564091	14.01086668205088	0	0.9399999999999999	0	15.75502191907929	2.153986013130818	-13.04399750087621	23.51280545379029	0.4103758715495199	0	0	0	14.18603546059294	-9.668249330161734	-9.030018612450119	19.51001729396669	0.3405140389007532	0	0	0	0	0	0	27.34825984804477	-27.34825984804475	4.10397896992903	84.40933982996553	85.89602126286427	0	0	27.34825984804477	-27.34825984804475	4.10397896992903	84.40933982996553	85.89602126269791	0	0
9.479999999999887	1.385762709127817	-4.030261957796889	14.07214135215028	0	0.9399999999999999	0	15.4581325215529	2.160874309477128	-13.11456026810357	22.36390577245842	0.3903237893351653	0	0	0	12.57994436648217	-9.402569271893139	-9.554570533401609	17.08013358756345	0.2981045677834533	0	0	0	0	0	0	27.35215190036199	-27.35215190036197	4.10436779119695	84.40959612992545	85.89563244161627	0	0	27.35215190036199	-27.35215190036197	4.10436779119695	84.40959612992545	85.89563244144993	0	0
9.499999999999886	1.42956919906713	-4.053646354913261	14.16595020259188	0	0.9399999999999999	0	13.36910379961531	3.065441448767248	-12.84368182301725	18.97267738882366	0.3311356883536533	0	0	0	11.23130480109095	-9.125440140861317	-10.05256272150819	14.58966433222415	0.2546376793580913	0	0	0	0	0	0	27.35709273416055	-27.35709273416053	4.104863973378909	84.40992319891281	85.89513625945969	0	0	27.35709273416055	-27.35709273416053	4.104863973378909	84.40992319891281	85.89513625929344	0	0
9.519999999999886	1.215862382590544	-4.178671962741028	14.26316597984721	0	0.9399999999999999	0	12.53647520583324	3.623891700853349	-12.9455304111714	16.60287705231932	0.289774869866783	0	0	0	10.29098731006961	-8.958066365369408	-10.92856516405501	12.98667550167669	0.2266602463923447	0	0	0	0	0	0	27.36162507003773	-27.36162507003772	4.105319270977668	84.41022331796079	85.89468096188423	0	0	27.36162507003773	-27.36162507003772	4.105319270977668	84.41022331796079	85.89468096171802	0	0
9.539999999999885	0.8195680916867771	-4.399692099141688	14.40708346397877	0	0.9399999999999999	0	11.86579915391853	4.226786165780638	-12.99747515891841	14.19885279697769	0.2478167313132667	0	0	0	10.72110617549041	-9.129461692034656	-10.76559069400181	11.80933693394679	0.2061118119747435	0	0	0	0	0	0	27.3661541534553	-27.36615415345529	4.105771806545931	84.4105216166089	85.89422842633914	0	0	27.3661541534553	-27.36615415345529	4.105771806545931	84.4105216166089	85.89422842617303	0	0
9.559999999999885	0.153229244433944	-4.77491207398654	14.61176103554415	0	0.9399999999999999	0	11.5369359380968	4.92962583134851	-12.90645834381382	11.83092253714804	0.2064885518216344	0	0	0	10.2473664384268	-9.369431576229065	-11.59043074953151	9.715923980342886	0.1695748633304562	0	0	0	0	0	0	27.37049892062877	-27.37049892062875	4.106208311740363	84.41080934826415	85.89379192116706	0	0	27.37049892062877	-27.37049892062875	4.106208311740363	84.41080934826415	85.89379192100104	0	0
9.579999999999885	-0.09670020613906503	-4.997129218094263	14.66657395941231	0	0.9399999999999999	0	10.72527558972031	5.637730411284569	-12.65814580748628	9.513327675220925	0.1660388907537029	0	0	0	9.345060042110406	-9.414297341566737	-11.571277061774	7.632851241708469	0.1332183854827503	0	0	0	0	0	0	27.37503110007046	-27.37503110007044	4.106662646771206	84.41110883294249	85.89333758615949	0	0	27.37503110007046	-27.37503110007044	4.106662646771206	84.41110883294249	85.89333758599349	0	0
9.599999999999884	-0.1877227302298994	-5.179715374130256	14.72538456519654	0	0.9399999999999999	0	8.571546459504679	6.452036514333207	-11.96175572709031	6.146884118295686	0.1072833666028083	0	0	0	8.477761075670482	-9.363682727517803	-11.20921784824871	5.810987819040891	0.101420870235548	0	0	0	0	0	0	27.16557651426667	-27.16557651426666	4.089138574657134	84.39955712303909	85.91086165740299	0	0	27.16557651426667	-27.16557651426666	4.089138574657134	84.39955712303909	85.91086165723368	0	0
9.619999999999884	-0.1138849659188754	-5.256982225130015	14.73596866413707	0	0.9399999999999999	0	7.394600811307903	6.411844111448236	-11.69269960164142	3.416702431273477	0.05963270698661744	0	0	0	7.560325140242459	-9.559565692174958	-11.01086115862566	4.509273313945729	0.07870166620066892	0	0	0	0	0	0	27.16930310315464	-27.16930310315464	4.089513072056281	84.39980398064408	85.91048716002295	0	0	27.16930310315464	-27.16930310315464	4.089513072056281	84.39980398064408	85.91048715985372	0	0
9.639999999999883	0.06319490628767921	-5.374486913157019	14.72921382555102	0	0.9399999999999999	0	6.326813199771457	6.290761797758268	-11.34422945973455	2.594697041901476	0.04528600647293802	0	0	0	5.982283816877499	-9.597371796835338	-9.436784860806748	2.343231329219754	0.04089710183076792	0	0	0	0	0	0	27.17694261741533	-27.17694261741534	4.090284940654385	84.40031277320332	85.90971529146437	0	0	27.17694261741533	-27.17694261741534	4.090284940654385	84.40031277320332	85.90971529129521	0	0
9.659999999999883	0.1495182185947808	-5.504518134087781	14.6433329166106	0	0.9399999999999999	0	5.640305385732558	6.351910335387835	-10.65899904306383	1.31177070283946	0.0228947177957487	0	0	0	5.39419040994678	-9.632084274032557	-8.443140069712836	1.239757888293726	0.02163785707829759	0	0	0	0	0	0	27.18319780163294	-27.18319780163295	4.09091600031038	84.40072874886559	85.90908423184075	0	0	27.18319780163294	-27.18319780163295	4.09091600031038	84.40072874886559	85.90908423167173	0	0
9.679999999999882	0.3517404078579042	-5.576630693222546	14.53805725411624	0	0.9399999999999999	0	5.065506096578269	6.617624341999583	-10.06609222774255	0.5660732949081697	0.009879842803760414	0	0	0	4.850508727058668	-9.767331355530734	-8.151339212737325	0.7807955908404673	0.01362745384522063	0	0	0	0	0	0	27.18764634542108	-27.18764634542108	4.09136201738403	84.40102275028764	85.90863821478992	0	0	27.18764634542108	-27.18764634542108	4.09136201738403	84.40102275028764	85.90863821462095	0	0
9.699999999999882	0.4868862225282206	-5.57038998309124	14.46970399970052	0	0.9399999999999999	0	4.925441246607709	6.64837300087332	-9.946989272184513	0.3764463741858962	0.006570228686738476	0	0	0	4.702167783016247	-9.782439837073237	-8.222860382572508	0.6953240041398576	0.0121356932403912	0	0	0	0	0	0	27.2058639982295	-27.20586399822951	4.093024308582573	84.40211851857511	85.90697592367481	0	0	27.2058639982295	-27.20586399822951	4.093024308582573	84.40211851857511	85.90697592350612	0	0
9.719999999999882	0.513479400718406	-5.540325482715734	14.36970092491093	0	0.9399999999999999	0	4.740259367144672	6.68904502434013	-10.01644655387785	0.2993103285794044	0.005223950718936688	0	0	0	4.457464289007959	-9.849555114262113	-8.494217408918313	0.6395455827250068	0.01116217613513714	0	0	0	0	0	0	27.20765509485771	-27.20765509485772	4.09320369439394	84.40223676448959	85.90679653787259	0	0	27.20765509485771	-27.20765509485772	4.09320369439394	84.40223676448959	85.90679653770393	0	0
9.739999999999881	0.4809303179291874	-5.509471118485266	14.23872177412589	0	0.9399999999999999	0	4.720530348496637	6.533595582457374	-10.1978167960114	0.3316898608641543	0.005789080167561376	0	0	0	4.444772658828203	-9.824793619245309	-8.655432485379224	0.6398847737419495	0.01116809613517598	0	0	0	0	0	0	27.20833450954458	-27.20833450954458	4.09327171915507	84.40228160443885	85.90672851311494	0	0	27.20833450954458	-27.20833450954458	4.09327171915507	84.40228160443885	85.9067285129463	0	0
9.759999999999881	0.6192885449285441	-5.338817133704392	14.02896469936244	0	0.9399999999999999	0	4.602652013940001	6.289655280645021	-10.17541679171127	0.6752397143759268	0.01178515625608601	0	0	0	4.203936598620981	-9.774938365962434	-9.644133579906859	0.9289161885962648	0.01621264596608142	0	0	0	0	0	0	27.21036448168228	-27.21036448168229	4.093475772376773	84.40241611032094	85.90652445990369	0	0	27.21036448168228	-27.21036448168229	4.093475772376773	84.40241611032094	85.90652445973508	0	0
9.77999999999988	0.7275235169002821	-5.270716620601522	13.97413161576335	0	0.9399999999999999	0	4.67661974151155	6.177156394567866	-10.28427047268803	1.258259640157473	0.02196077356570696	0	0	0	4.101495597828948	-9.732189207505737	-9.723101731266306	1.319720466030336	0.02303346733818335	0	0	0	0	0	0	27.21376900726181	-27.21376900726181	4.093818226980462	84.40264184630715	85.90618200531755	0	0	27.21376900726181	-27.21376900726181	4.093818226980462	84.40264184630715	85.90618200514902	0	0
9.79999999999988	1.466551110179179	-4.957470862300433	13.79745075769642	0	0.9399999999999999	0	4.311022138211335	6.040049699497682	-10.41370718996843	2.098176680468831	0.0366200913627461	0	0	0	3.680125775081458	-9.555508779740654	-9.783665251288815	2.073834194194492	0.03619523482913736	0	0	0	0	0	0	27.2180865703826	-27.21808657038261	4.094253737580631	84.4029289219481	85.9057464947397	0	0	27.2180865703826	-27.21808657038261	4.094253737580631	84.4029289219481	85.90574649457122	0	0
9.819999999999879	1.957289114416054	-4.800204860105522	13.71529420962953	0	0.9399999999999999	0	4.036833880820452	5.982190394647325	-10.62019484476214	3.088812887214274	0.05390995485992134	0	0	0	3.164133915692726	-9.501448378455983	-9.865980080897611	2.552969004114855	0.04455771482316489	0	0	0	0	0	0	27.22204120903001	-27.22204120903001	4.094651820966474	84.40319132677661	85.90534841137416	0	0	27.22204120903001	-27.22204120903001	4.094651820966474	84.40319132677661	85.90534841120572	0	0
9.839999999999879	2.436016385846691	-4.672348899620911	13.67405617726767	0	0.9399999999999999	0	3.798513029718278	5.963887750857654	-10.74932818200805	3.322591884614129	0.05799016808656007	0	0	0	3.172799364890214	-9.269181752573717	-9.098128141583347	3.054743103087642	0.05331532495146792	0	0	0	0	0	0	27.22411200230228	-27.22411200230228	4.094860602806602	84.40332894957827	85.90513962954475	0	0	27.22411200230228	-27.22411200230228	4.094860602806602	84.40332894957827	85.90513962937635	0	0
